<?xml version="1.0" encoding="UTF-8"?>
<svg id="Layer_1" xmlns="http://www.w3.org/2000/svg" version="1.1" viewBox="0 0 139.19 40.94">
  <!-- Generator: Adobe Illustrator 29.8.1, SVG Export Plug-In . SVG Version: 2.1.1 Build 2)  -->
  <defs>
    <style>
      .st0 {
        fill: #fff;
      }

      .st1 {
        fill: #60bb51;
      }
    </style>
  </defs>
  <g>
    <path class="st0" d="M22.2,36.05l-14.92-.26,13.5-16.96v-4.26H1.73v4.26h13.04L1.23,35.79v4.26l24.34.33s.01-.01,0-.02c-1.46-1.08-2.62-2.51-3.37-4.32h0Z"/>
    <g>
      <path class="st0" d="M23.44,30.74c0-6.08,4.18-9.85,9.77-9.85s8.33,3.04,8.33,7.3c0,1.18-.3,2.59-.88,4.22h-12.21c.61,2.97,2.78,4.15,6.05,4.15,1.79,0,3.5-.49,5.21-1.41l1.18,3.46c-2.13,1.25-4.49,1.86-7.07,1.86-5.74,0-10.38-3.04-10.38-9.73ZM28.38,29.1h8.52c.08-.34.11-.72.11-1.03,0-2.05-1.52-3.35-3.73-3.35-2.85,0-4.53,1.64-4.91,4.37h.01Z"/>
      <path class="st0" d="M43.88,11.91h4.83v11.22c1.37-1.25,3.23-2.24,5.86-2.24,5.13,0,8.1,3.57,8.1,9.62,0,6.62-3.73,9.96-8.75,9.96-2.55,0-4.37-.84-5.74-2.28l-1.18,1.86h-3.12V11.91ZM48.71,26.82v7.79c.87,1.33,2.58,1.98,4.33,1.98,3.38,0,4.75-2.4,4.75-6.05s-1.56-5.67-4.41-5.67c-1.67,0-3.31.65-4.68,1.94h.01Z"/>
      <path class="st0" d="M64.6,30.7c0-6.01,3.69-9.81,9.54-9.81s9.54,3.8,9.54,9.81-3.69,9.77-9.54,9.77-9.54-3.76-9.54-9.77ZM78.82,30.7c0-3.88-1.6-5.89-4.68-5.89s-4.68,2.02-4.68,5.89,1.63,5.89,4.68,5.89,4.68-2.02,4.68-5.89Z"/>
      <path class="st0" d="M86.88,29.1c0-1.52-.19-4.07-.88-7.42l4.37-.61c.3,1.06.57,2.02.76,2.97,1.71-2.09,4.3-3.16,6.5-3.16.49,0,.99.04,1.48.15v4.33c-.61-.11-1.18-.19-1.75-.19-2.13,0-4.3.65-5.74,2.13.04.46.08.91.08,1.33v11.41h-4.83v-10.95h.01Z"/>
      <path class="st0" d="M99.8,34.92c0-3.99,3.5-6.16,9.54-6.16.95,0,1.94,0,2.97.08v-.53c0-2.62-1.33-3.69-4.03-3.69-2.36,0-4.56.84-6.27,1.56l-1.1-3.42c2.55-1.25,5.59-1.86,8.18-1.86,5.17,0,7.87,2.28,7.87,6.92v6.73c0,1.37.19,2.78.61,5.25l-4.3.61c-.27-.8-.46-1.64-.65-2.51-1.83,1.6-4.18,2.59-6.39,2.59-3.61,0-6.43-1.79-6.43-5.55v-.02ZM107.33,37.05c1.52,0,3.27-.61,4.87-1.98v-3.12c-1.03-.11-1.9-.15-2.7-.15-3.08,0-5.29.57-5.29,2.85,0,1.56,1.41,2.4,3.12,2.4Z"/>
    </g>
  </g>
  <g>
    <path class="st1" d="M126.25,4.58c-.42-.95-1.01-1.83-1.69-2.63l-.88,2.11c-.14.35-.35.66-.53.99.38.78.7,1.6.87,2.44.51,2.55-.02,5.32.22,7.89.2,2.22,1.19,4.21,2.33,6.09.48.78.99,1.55,1.52,2.31l.81-1.85c.18-.42.42-.79.65-1.18-1.03-1.71-1.98-3.5-2.35-5.44-.69-3.53.53-7.34-.95-10.73Z"/>
    <path class="st1" d="M131.28,7.65c-.98-1.03-1.79-2.24-2.35-3.58l-1.32-3.19c-.43-1.04-1.75-1.16-2.39-.37,1.09,1.18,1.88,2.51,2.39,4.26.97,3.31-.07,6.87.69,10.19.37,1.6,1.17,3.14,2.04,4.57.66-.87,1.43-1.64,2.31-2.29-.49-.98-.92-2.01-1.15-3.07-.47-2.12-.22-4.35-.23-6.53h0Z"/>
    <path class="st1" d="M135.78,12.74c-.17-.75-.22-1.5-.26-2.25l-.66-.3c-.77-.34-1.47-.78-2.14-1.28-.05,1.88-.11,3.76.42,5.56.1.35.24.74.38,1.09.04.1.21.48.41.9.27-.15.53-.33.81-.46l1.72-.77.11-.14c-.3-.77-.61-1.55-.8-2.36h0Z"/>
    <path class="st1" d="M122.2,6.56c-.7.94-1.52,1.79-2.47,2.47.5,2.75,0,5.56.39,8.36,1.53,1.18,2.79,2.71,3.58,4.53l1.3,2.99c.44,1,1.69,1.13,2.34.39-2.12-3.02-4.33-6.29-4.62-10.03-.26-3.32.42-5.96-.53-8.71Z"/>
    <path class="st1" d="M118.35,9.84c-.21.11-.4.26-.61.35l-1.17.52c.02,1.51-.21,3.02-.42,4.53l1.72.76c.21.1.4.23.6.34-.1-2.16.18-4.39-.1-6.49h0Z"/>
    <path class="st1" d="M114.26,11.73c-1.14.5-1.14,2.16,0,2.67l.47.21c.17-1.08.33-2.16.34-3.24,0,0-.81.36-.81.36Z"/>
    <path class="st1" d="M138.34,11.73l-1.29-.57c.09.87.26,1.73.59,2.55l.44.81.25-.11c1.14-.5,1.14-2.16,0-2.67h0Z"/>
  </g>
  <path class="st1" d="M136.8,5.09l-.3.69c-.12.27-.48.27-.6,0l-.3-.69c-.27-.62-.75-1.11-1.36-1.38l-.83-.37c-.26-.12-.26-.5,0-.62l.81-.36c.62-.28,1.11-.78,1.38-1.42l.31-.74c.11-.27.49-.27.61,0l.31.74c.26.64.76,1.15,1.38,1.42l.81.36c.26.12.26.5,0,.62l-.83.37c-.6.27-1.09.76-1.36,1.38Z"/>
</svg>